<svg width="40" height="40" viewBox="0 0 40 40" fill="none" xmlns="http://www.w3.org/2000/svg">
<path d="M15 31.2501C15 30.9186 15.1317 30.6006 15.3661 30.3662C15.6006 30.1318 15.9185 30.0001 16.25 30.0001H23.75C24.0816 30.0001 24.3995 30.1318 24.6339 30.3662C24.8683 30.6006 25 30.9186 25 31.2501C25 31.5816 24.8683 31.8996 24.6339 32.134C24.3995 32.3684 24.0816 32.5001 23.75 32.5001H16.25C15.9185 32.5001 15.6006 32.3684 15.3661 32.134C15.1317 31.8996 15 31.5816 15 31.2501ZM7.50003 20.1551C7.50003 16.9001 10.5875 14.4126 13.825 14.7151C17.9328 15.0985 22.0673 15.0985 26.175 14.7151C29.4125 14.4126 32.5 16.9001 32.5 20.1551V23.0476C32.5102 23.6008 32.3235 24.1395 31.9732 24.5677C31.6229 24.9959 31.1317 25.2856 30.5875 25.3851C28.475 25.7526 24.7375 26.2501 20 26.2501C15.2625 26.2501 11.525 25.7501 9.41253 25.3851C8.86832 25.2856 8.37721 24.9959 8.02688 24.5677C7.67655 24.1395 7.48982 23.6008 7.50003 23.0476V20.1551ZM18.855 18.0876C18.7576 18.071 18.6576 18.0778 18.5633 18.1074C18.469 18.1369 18.3831 18.1884 18.3125 18.2576L16.0125 20.5076C14.4481 20.4144 12.8878 20.2618 11.335 20.0501C11.1741 20.0341 11.0133 20.0811 10.8863 20.1812C10.7593 20.2814 10.6761 20.4268 10.654 20.587C10.632 20.7472 10.673 20.9097 10.7683 21.0403C10.8636 21.171 11.0058 21.2596 11.165 21.2876C12.54 21.4776 14.245 21.6601 16.215 21.7701C16.3018 21.775 16.3886 21.7617 16.47 21.7312C16.5514 21.7006 16.6254 21.6534 16.6875 21.5926L18.5725 19.7526L20.69 24.0276C20.7346 24.1173 20.8001 24.1949 20.881 24.254C20.9619 24.3131 21.0558 24.3519 21.1548 24.3671C21.2538 24.3823 21.355 24.3734 21.4499 24.3413C21.5448 24.3092 21.6306 24.2548 21.7 24.1826L24.03 21.7576C25.6371 21.6622 27.2399 21.5054 28.835 21.2876C28.9943 21.2596 29.1365 21.171 29.2318 21.0403C29.3271 20.9097 29.368 20.7472 29.346 20.587C29.324 20.4268 29.2408 20.2814 29.1138 20.1812C28.9868 20.0811 28.8259 20.0341 28.665 20.0501C27.32 20.2351 25.6475 20.4126 23.715 20.5226C23.5577 20.5314 23.4095 20.5992 23.3 20.7126L21.415 22.6751L19.31 18.4251C19.2661 18.337 19.202 18.2605 19.123 18.2019C19.0439 18.1432 18.9521 18.1041 18.855 18.0876Z" fill="#F77A40"/>
<path d="M21.25 4.66506C21.7266 4.3899 22.0991 3.96515 22.3097 3.45671C22.5203 2.94826 22.5573 2.38454 22.4148 1.85295C22.2724 1.32137 21.9585 0.85164 21.5219 0.516617C21.0853 0.181594 20.5503 0 20 0C19.4497 0 18.9147 0.181594 18.4781 0.516617C18.0415 0.85164 17.7276 1.32137 17.5852 1.85295C17.4427 2.38454 17.4797 2.94826 17.6903 3.45671C17.9009 3.96515 18.2734 4.3899 18.75 4.66506V7.50006H13.75C10.7663 7.50006 7.90483 8.68533 5.79505 10.7951C3.68526 12.9049 2.5 15.7664 2.5 18.7501V20.0001C1.83696 20.0001 1.20107 20.2635 0.732233 20.7323C0.263392 21.2011 0 21.837 0 22.5001L0 27.5001C0 28.1631 0.263392 28.799 0.732233 29.2678C1.20107 29.7367 1.83696 30.0001 2.5 30.0001V32.5001C2.5 33.8261 3.02678 35.0979 3.96447 36.0356C4.90215 36.9733 6.17392 37.5001 7.5 37.5001H32.5C33.8261 37.5001 35.0979 36.9733 36.0355 36.0356C36.9732 35.0979 37.5 33.8261 37.5 32.5001V30.0001C38.163 30.0001 38.7989 29.7367 39.2678 29.2678C39.7366 28.799 40 28.1631 40 27.5001V22.5001C40 21.837 39.7366 21.2011 39.2678 20.7323C38.7989 20.2635 38.163 20.0001 37.5 20.0001V18.7501C37.5 15.7664 36.3147 12.9049 34.205 10.7951C32.0952 8.68533 29.2337 7.50006 26.25 7.50006H21.25V4.66506ZM35 18.7501V32.5001C35 33.1631 34.7366 33.799 34.2678 34.2678C33.7989 34.7367 33.163 35.0001 32.5 35.0001H7.5C6.83696 35.0001 6.20107 34.7367 5.73223 34.2678C5.26339 33.799 5 33.1631 5 32.5001V18.7501C5 16.4294 5.92187 14.2038 7.56282 12.5629C9.20376 10.9219 11.4294 10.0001 13.75 10.0001H26.25C28.5706 10.0001 30.7962 10.9219 32.4372 12.5629C34.0781 14.2038 35 16.4294 35 18.7501Z" fill="#F77A40"/>
</svg>
