<svg width="40" height="40" viewBox="0 0 40 40" fill="none" xmlns="http://www.w3.org/2000/svg">
<path d="M23.4333 16.5666L21.6666 15.7499C21.5211 15.6836 21.3978 15.5769 21.3113 15.4424C21.2248 15.308 21.1788 15.1514 21.1788 14.9916C21.1788 14.8317 21.2248 14.6752 21.3113 14.5407C21.3978 14.4063 21.5211 14.2995 21.6666 14.2332L23.4333 13.4166L24.25 11.6666C24.3162 11.5211 24.423 11.3977 24.5574 11.3112C24.6919 11.2247 24.8484 11.1787 25.0083 11.1787C25.1682 11.1787 25.3247 11.2247 25.4591 11.3112C25.5936 11.3977 25.7003 11.5211 25.7666 11.6666L26.5833 13.4332L28.3333 14.2499C28.4788 14.3162 28.6021 14.4229 28.6886 14.5574C28.7751 14.6919 28.8211 14.8484 28.8211 15.0082C28.8211 15.1681 28.7751 15.3246 28.6886 15.4591C28.6021 15.5935 28.4788 15.7003 28.3333 15.7666L26.5666 16.5832L25.75 18.3332C25.6837 18.4787 25.5769 18.6021 25.4425 18.6886C25.308 18.7751 25.1515 18.8211 24.9916 18.8211C24.8317 18.8211 24.6752 18.7751 24.5408 18.6886C24.4063 18.6021 24.2996 18.4787 24.2333 18.3332L23.4333 16.5666ZM7.41662 21.6666L8.23329 19.8999L9.99995 19.0832C10.1454 19.0169 10.2688 18.9102 10.3553 18.7757C10.4418 18.6413 10.4878 18.4848 10.4878 18.3249C10.4878 18.165 10.4418 18.0085 10.3553 17.8741C10.2688 17.7396 10.1454 17.6329 9.99995 17.5666L8.23329 16.7499L7.41662 14.9999C7.35238 14.8546 7.24729 14.731 7.11415 14.6443C6.981 14.5576 6.82552 14.5114 6.66662 14.5114C6.50772 14.5114 6.35224 14.5576 6.21909 14.6443C6.08594 14.731 5.98086 14.8546 5.91662 14.9999L5.09995 16.7666L3.33329 17.5832C3.1878 17.6495 3.06444 17.7563 2.97795 17.8907C2.89145 18.0252 2.84546 18.1817 2.84546 18.3416C2.84546 18.5014 2.89145 18.658 2.97795 18.7924C3.06444 18.9269 3.1878 19.0336 3.33329 19.0999L5.09995 19.9166L5.91662 21.6666C6.19995 22.3166 7.13329 22.3166 7.41662 21.6666ZM14.9333 13.3166L15.9833 10.9832L18.3166 9.93324C18.4621 9.86695 18.5855 9.76021 18.672 9.62575C18.7585 9.49129 18.8044 9.33478 18.8044 9.1749C18.8044 9.01502 18.7585 8.85852 18.672 8.72406C18.5855 8.5896 18.4621 8.48286 18.3166 8.41657L15.9833 7.36657L14.9333 5.03324C14.867 4.88775 14.7603 4.7644 14.6258 4.6779C14.4913 4.5914 14.3348 4.54541 14.175 4.54541C14.0151 4.54541 13.8586 4.5914 13.7241 4.6779C13.5896 4.7644 13.4829 4.88775 13.4166 5.03324L12.3666 7.36657L10.0333 8.41657C9.8878 8.48286 9.76444 8.5896 9.67795 8.72406C9.59145 8.85852 9.54546 9.01502 9.54546 9.1749C9.54546 9.33478 9.59145 9.49129 9.67795 9.62575C9.76444 9.76021 9.8878 9.86695 10.0333 9.93324L12.3666 10.9832L13.4166 13.3166C13.7 13.9666 14.6333 13.9666 14.9333 13.3166ZM37.2333 13.7832C37.0731 13.6236 36.8821 13.4981 36.6719 13.4146C36.4617 13.3311 36.2367 13.2913 36.0106 13.2975C35.7845 13.3038 35.5621 13.356 35.3568 13.4509C35.1515 13.5459 34.9677 13.6816 34.8166 13.8499L24.1666 25.8166L18.6833 20.3332C18.5291 20.1787 18.3459 20.0562 18.1443 19.9725C17.9427 19.8889 17.7266 19.8458 17.5083 19.8458C17.29 19.8458 17.0739 19.8889 16.8722 19.9725C16.6706 20.0562 16.4875 20.1787 16.3333 20.3332L6.26662 30.4166C5.58329 31.0999 5.58329 32.2332 6.26662 32.9166C6.94995 33.5999 8.08329 33.5999 8.76662 32.9166L17.5166 24.1499L22.9333 29.5666C23.6166 30.2499 24.7166 30.2166 25.35 29.4999L37.2999 16.0499C37.8833 15.3999 37.85 14.3999 37.2333 13.7832Z" fill="#F77A40"/>
</svg>
