<svg width="32" height="32" viewBox="0 0 32 32" fill="none" xmlns="http://www.w3.org/2000/svg">
<path d="M5 3.49995C5.00016 3.81027 4.90407 4.11301 4.72497 4.36644C4.54587 4.61986 4.29258 4.8115 4 4.91495V11.9999L6.16 17.4869L4 22.9999C2.9 22.9999 2 22.0999 2 21.0019V13.9979C2.00071 13.6476 2.09346 13.3035 2.26896 13.0002C2.44446 12.697 2.69656 12.4451 3 12.2699V4.91495C2.74076 4.82329 2.5117 4.66214 2.33786 4.44911C2.16401 4.23608 2.05206 3.97936 2.01425 3.70701C1.97644 3.43465 2.01422 3.15715 2.12345 2.90481C2.23269 2.65248 2.40919 2.43503 2.63365 2.27622C2.85812 2.11741 3.12192 2.02335 3.39623 2.00433C3.67053 1.9853 3.94479 2.04205 4.18903 2.16835C4.43327 2.29466 4.63809 2.48567 4.78111 2.72051C4.92414 2.95535 4.99986 3.22498 5 3.49995ZM30.05 3.54995C30.05 4.23095 29.61 4.80995 29 5.01795V12.1999C29.597 12.5469 30 13.1939 30 13.9299V20.9399C30 22.0399 29.1 22.9399 28 22.9399L25.06 17.2599L28 11.9299V5.01795C27.7304 4.92605 27.4912 4.76162 27.3089 4.54271C27.1266 4.32381 27.0082 4.05889 26.9666 3.77707C26.925 3.49524 26.9619 3.2074 27.0732 2.94517C27.1845 2.68294 27.366 2.45646 27.5976 2.2906C27.8292 2.12474 28.102 2.02592 28.3861 2.00499C28.6702 1.98407 28.9546 2.04184 29.208 2.17198C29.4615 2.30211 29.6741 2.49956 29.8226 2.74265C29.9712 2.98575 30.0498 3.26507 30.05 3.54995Z" fill="white"/>
<path d="M11 4.5C11 4.10218 11.158 3.72065 11.4393 3.43934C11.7206 3.15804 12.1022 3 12.5 3H19.5C19.8607 2.99923 20.2097 3.12849 20.4829 3.36409C20.756 3.59968 20.9352 3.92584 20.9874 4.28278C21.0396 4.63971 20.9615 5.00352 20.7673 5.30753C20.5731 5.61153 20.2758 5.83536 19.93 5.938C19.653 6.02 19.36 6.042 19.083 6.124L16.03 7.028L12.91 6.12C12.638 6.04 12.35 6.02 12.078 5.94C11.7668 5.84877 11.4935 5.65913 11.2992 5.39952C11.1049 5.13991 10.9999 4.8243 11 4.5Z" fill="white"/>
<path d="M22.05 30H9.95C6.66 30 4 27.34 4 24.05V12.03C4 8.7 6.7 6 10.03 6H21.98C25.3 6 28 8.7 28 12.03V24.06C28 27.34 25.34 30 22.05 30Z" fill="white"/>
<path d="M9.247 18.5H22.753C25.083 18.5 27 16.581 27 14.25C26.9982 13.1239 26.5502 12.0444 25.7542 11.2479C24.9582 10.4514 23.8791 10.0026 22.753 10H9.247C8.12092 10.0026 7.04176 10.4514 6.24578 11.2479C5.4498 12.0444 5.00185 13.1239 5 14.25C5.00185 15.3761 5.4498 16.4556 6.24578 17.2521C7.04176 18.0486 8.12092 18.4974 9.247 18.5ZM13.472 26H18.528C19.34 26 20 25.326 20 24.5C20 23.674 19.34 23 18.528 23H13.472C12.66 23 12 23.674 12 24.5C12 25.326 12.66 26 13.472 26Z" fill="white"/>
<path d="M10.25 12C9.56 12 9 12.56 9 13.25V15.75C9 16.0815 9.1317 16.3995 9.36612 16.6339C9.60054 16.8683 9.91848 17 10.25 17C10.5815 17 10.8995 16.8683 11.1339 16.6339C11.3683 16.3995 11.5 16.0815 11.5 15.75V13.25C11.5 12.56 10.94 12 10.25 12ZM21.75 12C21.06 12 20.5 12.56 20.5 13.25V15.75C20.5 16.0815 20.6317 16.3995 20.8661 16.6339C21.1005 16.8683 21.4185 17 21.75 17C22.0815 17 22.3995 16.8683 22.6339 16.6339C22.8683 16.3995 23 16.0815 23 15.75V13.25C23 12.56 22.44 12 21.75 12Z" fill="white"/>
</svg>
