<svg width="30" height="30" viewBox="0 0 30 30" fill="none" xmlns="http://www.w3.org/2000/svg">
<g clip-path="url(#clip0_32_377)">
<path d="M14.9988 0C12.1863 0 9.37378 0.075 6.74878 0.2625C5.08273 0.370742 3.51104 1.07406 2.32019 2.24425C1.12935 3.41444 0.398651 4.97359 0.261284 6.6375C-0.0387156 10.65 -0.0762156 14.625 0.186284 18.6375C0.330035 20.4207 1.14586 22.0827 2.46867 23.2872C3.79147 24.4916 5.52245 25.1485 7.31128 25.125H11.2488V20.25H7.31128C6.14878 20.2875 5.13628 19.4625 5.02378 18.3C4.79878 14.55 4.83628 10.8 5.09878 7.05C5.17378 6 5.99878 5.2125 7.04878 5.1375C9.59878 4.95 12.2988 4.875 14.9988 4.875C17.6988 4.875 20.3988 4.9875 22.9488 5.1C23.9613 5.175 24.8238 5.9625 24.8988 7.0125C25.1988 10.7625 25.1988 14.5125 24.9738 18.2625C24.8238 19.425 23.8488 20.2875 22.6863 20.25H18.7488L11.2488 25.125V30L18.7488 25.125H22.6863C26.3988 25.1625 29.5113 22.3125 29.8113 18.6375C30.0738 14.6625 30.0363 10.65 29.7738 6.675C29.6364 5.01109 28.9057 3.45194 27.7149 2.28175C26.524 1.11156 24.9523 0.408242 23.2863 0.3C20.6238 0.075 17.8113 0 14.9988 0ZM8.69878 10.95C8.24878 10.95 7.87378 11.325 7.87378 11.775V14.7C7.87378 15.1125 8.09878 15.4875 8.47378 15.675C10.4988 16.65 12.7488 17.175 14.9988 17.25C17.2488 17.175 19.4988 16.65 21.5238 15.675C21.8988 15.4875 22.1238 15.1125 22.1238 14.7V11.775C22.1238 11.6625 22.0863 11.5875 22.0113 11.5125C21.9719 11.4096 21.912 11.3158 21.8352 11.2369C21.7583 11.1579 21.6662 11.0955 21.5644 11.0534C21.4626 11.0112 21.3533 10.9903 21.2432 10.9919C21.133 10.9935 21.0243 11.0175 20.9238 11.0625C19.0488 11.8875 17.0238 12.3375 14.9613 12.375C12.8988 12.3375 10.8738 11.85 8.99878 11.025C8.90554 10.9782 8.80309 10.9526 8.69878 10.95Z" fill="#F77A40"/>
</g>
<defs>
<clipPath id="clip0_32_377">
<rect width="30" height="30" fill="white"/>
</clipPath>
</defs>
</svg>
