<svg width="40" height="40" viewBox="0 0 40 40" fill="none" xmlns="http://www.w3.org/2000/svg">
<path d="M35 33.3333H6.66671V32.4333L15 24.0999L21.3334 30.4333C21.6456 30.7437 22.0681 30.9179 22.5084 30.9179C22.9487 30.9179 23.3711 30.7437 23.6834 30.4333L36.1834 17.9333C36.3396 17.7783 36.4636 17.594 36.5482 17.3909C36.6328 17.1878 36.6764 16.9699 36.6764 16.7499C36.6764 16.5299 36.6328 16.3121 36.5482 16.109C36.4636 15.9059 36.3396 15.7215 36.1834 15.5666C35.8711 15.2562 35.4487 15.0819 35.0084 15.0819C34.5681 15.0819 34.1456 15.2562 33.8334 15.5666L22.5 26.8999L16.1834 20.5666C15.8711 20.2562 15.4487 20.0819 15.0084 20.0819C14.5681 20.0819 14.1456 20.2562 13.8334 20.5666L6.66671 27.7166V19.0999L15 10.7666L19.6667 15.4333C19.979 15.7437 20.4014 15.9179 20.8417 15.9179C21.282 15.9179 21.7044 15.7437 22.0167 15.4333L30 7.44992L33.65 11.0999C33.9639 11.4115 34.3887 11.5857 34.8309 11.5842C35.2732 11.5826 35.6967 11.4054 36.0084 11.0916C36.32 10.7777 36.4942 10.353 36.4926 9.91069C36.4911 9.46842 36.3139 9.04488 36 8.73325L31.15 3.91659C30.8378 3.60617 30.4154 3.43193 29.975 3.43193C29.5347 3.43193 29.1123 3.60617 28.8 3.91659L20.8 11.9166L16.15 7.24992C15.8378 6.9395 15.4153 6.76526 14.975 6.76526C14.5347 6.76526 14.1123 6.9395 13.8 7.24992L6.66671 14.3833V4.99992C6.66671 4.55789 6.49111 4.13397 6.17855 3.82141C5.86599 3.50885 5.44207 3.33325 5.00004 3.33325C4.55801 3.33325 4.13409 3.50885 3.82153 3.82141C3.50897 4.13397 3.33337 4.55789 3.33337 4.99992V34.9999C3.33337 35.4419 3.50897 35.8659 3.82153 36.1784C4.13409 36.491 4.55801 36.6666 5.00004 36.6666H35C35.4421 36.6666 35.866 36.491 36.1786 36.1784C36.4911 35.8659 36.6667 35.4419 36.6667 34.9999C36.6667 34.5579 36.4911 34.134 36.1786 33.8214C35.866 33.5088 35.4421 33.3333 35 33.3333Z" fill="#F77A40"/>
</svg>
